<svg width="24" height="25" viewBox="0 0 24 25" fill="none" xmlns="http://www.w3.org/2000/svg">
<path d="M9.00068 19.0851C9.00068 19.9251 9.13068 20.7451 9.37068 21.5051C5.53068 20.1751 2.63068 16.6451 2.33068 12.5151C2.03068 8.12508 4.56068 4.02508 8.65068 2.30508C9.71068 1.86508 10.2507 2.18508 10.4807 2.41508C10.7007 2.63508 11.0107 3.16508 10.5707 4.17508C10.1207 5.21508 9.90068 6.31508 9.90068 7.45508C9.91068 9.49508 10.7107 11.3851 12.0107 12.8351C10.1807 14.2951 9.00068 16.5551 9.00068 19.0851Z" fill="#FFC700"/>
<path opacity="0.4" d="M21.21 17.805C19.23 20.495 16.09 22.075 12.74 22.075C12.58 22.075 12.42 22.065 12.26 22.055C11.26 22.015 10.29 21.825 9.37 21.505C9.13 20.745 9 19.925 9 19.085C9 16.555 10.18 14.295 12.01 12.835C13.48 14.485 15.59 15.555 17.92 15.655C18.55 15.685 19.18 15.635 19.8 15.525C20.92 15.325 21.37 15.745 21.53 16.015C21.7 16.285 21.88 16.875 21.21 17.805Z" fill="#FFC700"/>
</svg>
