<svg width="24" height="25" viewBox="0 0 24 25" fill="none" xmlns="http://www.w3.org/2000/svg">
<path opacity="0.4" d="M12 19.085C15.866 19.085 19 15.951 19 12.085C19 8.21897 15.866 5.08496 12 5.08496C8.13401 5.08496 5 8.21897 5 12.085C5 15.951 8.13401 19.085 12 19.085Z" fill="#FFC700"/>
<path d="M12 23.045C11.45 23.045 11 22.635 11 22.085V22.005C11 21.455 11.45 21.005 12 21.005C12.55 21.005 13 21.455 13 22.005C13 22.555 12.55 23.045 12 23.045ZM19.14 20.225C18.88 20.225 18.63 20.125 18.43 19.935L18.3 19.805C17.91 19.415 17.91 18.785 18.3 18.395C18.69 18.005 19.32 18.005 19.71 18.395L19.84 18.525C20.23 18.915 20.23 19.545 19.84 19.935C19.65 20.125 19.4 20.225 19.14 20.225ZM4.86 20.225C4.6 20.225 4.35 20.125 4.15 19.935C3.76 19.545 3.76 18.915 4.15 18.525L4.28 18.395C4.67 18.005 5.3 18.005 5.69 18.395C6.08 18.785 6.08 19.415 5.69 19.805L5.56 19.935C5.37 20.125 5.11 20.225 4.86 20.225ZM22 13.085H21.92C21.37 13.085 20.92 12.635 20.92 12.085C20.92 11.535 21.37 11.085 21.92 11.085C22.47 11.085 22.96 11.535 22.96 12.085C22.96 12.635 22.55 13.085 22 13.085ZM2.08 13.085H2C1.45 13.085 1 12.635 1 12.085C1 11.535 1.45 11.085 2 11.085C2.55 11.085 3.04 11.535 3.04 12.085C3.04 12.635 2.63 13.085 2.08 13.085ZM19.01 6.07496C18.75 6.07496 18.5 5.97496 18.3 5.78496C17.91 5.39496 17.91 4.76496 18.3 4.37496L18.43 4.24496C18.82 3.85496 19.45 3.85496 19.84 4.24496C20.23 4.63496 20.23 5.26496 19.84 5.65496L19.71 5.78496C19.52 5.97496 19.27 6.07496 19.01 6.07496ZM4.99 6.07496C4.73 6.07496 4.48 5.97496 4.28 5.78496L4.15 5.64496C3.76 5.25496 3.76 4.62496 4.15 4.23496C4.54 3.84496 5.17 3.84496 5.56 4.23496L5.69 4.36496C6.08 4.75496 6.08 5.38496 5.69 5.77496C5.5 5.97496 5.24 6.07496 4.99 6.07496ZM12 3.12496C11.45 3.12496 11 2.71496 11 2.16496V2.08496C11 1.53496 11.45 1.08496 12 1.08496C12.55 1.08496 13 1.53496 13 2.08496C13 2.63496 12.55 3.12496 12 3.12496Z" fill="#FFC700"/>
</svg>
